FILE "Full Share A Trader's Tale from the Golden Age of the Solar Clipper, Book 3.m4b" MP4
TRACK 1 AUDIO
  TITLE "Chapter 01"
  INDEX 01 0:0:00
TRACK 2 AUDIO
  TITLE "Chapter 02"
  INDEX 01 12:26:24
TRACK 3 AUDIO
  TITLE "Chapter 03"
  INDEX 01 25:14:68
TRACK 4 AUDIO
  TITLE "Chapter 04"
  INDEX 01 36:32:43
TRACK 5 AUDIO
  TITLE "Chapter 05"
  INDEX 01 47:20:82
TRACK 6 AUDIO
  TITLE "Chapter 06"
  INDEX 01 57:30:53
TRACK 7 AUDIO
  TITLE "Chapter 07"
  INDEX 01 85:51:67
TRACK 8 AUDIO
  TITLE "Chapter 08"
  INDEX 01 98:46:66
TRACK 9 AUDIO
  TITLE "Chapter 09"
  INDEX 01 111:17:59
TRACK 10 AUDIO
  TITLE "Chapter 10"
  INDEX 01 122:41:75
TRACK 11 AUDIO
  TITLE "Chapter 11"
  INDEX 01 138:43:19
TRACK 12 AUDIO
  TITLE "Chapter 12"
  INDEX 01 166:39:77
TRACK 13 AUDIO
  TITLE "Chapter 13"
  INDEX 01 186:1:97
TRACK 14 AUDIO
  TITLE "Chapter 14"
  INDEX 01 198:36:02
TRACK 15 AUDIO
  TITLE "Chapter 15"
  INDEX 01 214:20:88
TRACK 16 AUDIO
  TITLE "Chapter 16"
  INDEX 01 234:23:35
TRACK 17 AUDIO
  TITLE "Chapter 17"
  INDEX 01 250:43:09
TRACK 18 AUDIO
  TITLE "Chapter 18"
  INDEX 01 262:54:01
TRACK 19 AUDIO
  TITLE "Chapter 19"
  INDEX 01 273:40:45
TRACK 20 AUDIO
  TITLE "Chapter 20"
  INDEX 01 283:33:35
TRACK 21 AUDIO
  TITLE "Chapter 21"
  INDEX 01 295:45:99
TRACK 22 AUDIO
  TITLE "Chapter 22"
  INDEX 01 307:49:57
TRACK 23 AUDIO
  TITLE "Chapter 23"
  INDEX 01 318:41:49
TRACK 24 AUDIO
  TITLE "Chapter 24"
  INDEX 01 337:25:62
TRACK 25 AUDIO
  TITLE "Chapter 25"
  INDEX 01 349:4:77
TRACK 26 AUDIO
  TITLE "Chapter 26"
  INDEX 01 360:20:33
TRACK 27 AUDIO
  TITLE "Chapter 27"
  INDEX 01 370:23:45
TRACK 28 AUDIO
  TITLE "Chapter 28"
  INDEX 01 381:51:36
TRACK 29 AUDIO
  TITLE "Chapter 29"
  INDEX 01 400:25:92
TRACK 30 AUDIO
  TITLE "Chapter 30"
  INDEX 01 416:29:78
TRACK 31 AUDIO
  TITLE "Chapter 31"
  INDEX 01 437:21:15
TRACK 32 AUDIO
  TITLE "Chapter 32"
  INDEX 01 448:15:35
TRACK 33 AUDIO
  TITLE "Chapter 33"
  INDEX 01 468:38:62
TRACK 34 AUDIO
  TITLE "Chapter 34"
  INDEX 01 485:32:82
TRACK 35 AUDIO
  TITLE "Chapter 35"
  INDEX 01 513:25:54
